<mxfile host="Electron" agent="Mozilla/5.0 (X11; Linux x86_64) AppleWebKit/537.36 (KHTML, like Gecko) draw.io/28.0.6 Chrome/138.0.7204.100 Electron/37.2.3 Safari/537.36" version="28.0.6">
  <diagram name="Page-1" id="joartBeeGoGsnqhfamV7">
    <mxGraphModel dx="1532" dy="1142" grid="1" gridSize="10" guides="1" tooltips="1" connect="1" arrows="1" fold="1" page="1" pageScale="1" pageWidth="827" pageHeight="1169" math="0" shadow="0">
      <root>
        <mxCell id="0" />
        <mxCell id="1" parent="0" />
        <mxCell id="bK9UJtKBgzDi209zqQlf-1" value="" style="rounded=0;whiteSpace=wrap;html=1;fillColor=none;strokeColor=none;movable=0;resizable=0;rotatable=0;deletable=0;editable=0;locked=1;connectable=0;" parent="1" vertex="1">
          <mxGeometry width="820" height="1160" as="geometry" />
        </mxCell>
        <mxCell id="_fmguLi4OHHUgeg0fhcw-2" value="" style="ellipse;fillColor=strokeColor;html=1;" parent="1" vertex="1">
          <mxGeometry x="360" y="190" width="20" height="20" as="geometry" />
        </mxCell>
        <mxCell id="_fmguLi4OHHUgeg0fhcw-3" value="" style="endArrow=open;endFill=1;endSize=12;html=1;rounded=0;exitX=1;exitY=0.5;exitDx=0;exitDy=0;entryX=0.033;entryY=0.344;entryDx=0;entryDy=0;entryPerimeter=0;" parent="1" source="_fmguLi4OHHUgeg0fhcw-2" target="_fmguLi4OHHUgeg0fhcw-4" edge="1">
          <mxGeometry width="160" relative="1" as="geometry">
            <mxPoint x="80" y="100" as="sourcePoint" />
            <mxPoint x="190.27999999999997" y="103" as="targetPoint" />
          </mxGeometry>
        </mxCell>
        <mxCell id="_fmguLi4OHHUgeg0fhcw-4" value="INIT" style="ellipse;whiteSpace=wrap;html=1;" parent="1" vertex="1">
          <mxGeometry x="400" y="180" width="120" height="60" as="geometry" />
        </mxCell>
        <mxCell id="_fmguLi4OHHUgeg0fhcw-5" value="&lt;p style=&quot;white-space-collapse: preserve; text-align: start; margin: 0px;&quot;&gt;&lt;font style=&quot;font-size: 12px;&quot;&gt;ACKNOWLEDGE&lt;/font&gt;&lt;/p&gt;" style="ellipse;whiteSpace=wrap;html=1;" parent="1" vertex="1">
          <mxGeometry x="400" y="320" width="120" height="60" as="geometry" />
        </mxCell>
        <mxCell id="_fmguLi4OHHUgeg0fhcw-6" value="" style="ellipse;html=1;shape=endState;fillColor=strokeColor;" parent="1" vertex="1">
          <mxGeometry x="360" y="220" width="20" height="20" as="geometry" />
        </mxCell>
        <mxCell id="_fmguLi4OHHUgeg0fhcw-7" value="" style="endArrow=open;endFill=1;endSize=12;html=1;rounded=0;entryX=1;entryY=0.5;entryDx=0;entryDy=0;exitX=0;exitY=1;exitDx=0;exitDy=0;" parent="1" source="_fmguLi4OHHUgeg0fhcw-4" target="_fmguLi4OHHUgeg0fhcw-6" edge="1">
          <mxGeometry width="160" relative="1" as="geometry">
            <mxPoint x="410" y="250" as="sourcePoint" />
            <mxPoint x="70" y="99.75" as="targetPoint" />
          </mxGeometry>
        </mxCell>
        <mxCell id="_fmguLi4OHHUgeg0fhcw-8" value="&lt;p style=&quot;white-space-collapse: preserve; text-align: start; margin: 0px;&quot;&gt;&lt;font style=&quot;font-size: 12px;&quot;&gt;FEATURES_OK&lt;/font&gt;&lt;/p&gt;" style="ellipse;whiteSpace=wrap;html=1;" parent="1" vertex="1">
          <mxGeometry x="400" y="600" width="120" height="60" as="geometry" />
        </mxCell>
        <mxCell id="_fmguLi4OHHUgeg0fhcw-9" value="&lt;p style=&quot;white-space-collapse: preserve; text-align: start; margin: 0px;&quot;&gt;&lt;font style=&quot;font-size: 12px;&quot;&gt;FAILED&lt;/font&gt;&lt;/p&gt;" style="ellipse;whiteSpace=wrap;html=1;" parent="1" vertex="1">
          <mxGeometry x="600" y="460" width="120" height="60" as="geometry" />
        </mxCell>
        <mxCell id="_fmguLi4OHHUgeg0fhcw-10" value="&lt;p style=&quot;white-space-collapse: preserve; text-align: start; margin: 0px;&quot;&gt;&lt;font style=&quot;font-size: 12px;&quot;&gt;DRIVER_OK&lt;/font&gt;&lt;/p&gt;" style="ellipse;whiteSpace=wrap;html=1;" parent="1" vertex="1">
          <mxGeometry x="400" y="740" width="120" height="60" as="geometry" />
        </mxCell>
        <mxCell id="_fmguLi4OHHUgeg0fhcw-11" value="" style="endArrow=open;endFill=0;endSize=12;html=1;rounded=0;exitX=0.5;exitY=1;exitDx=0;exitDy=0;entryX=0.5;entryY=0;entryDx=0;entryDy=0;startArrow=none;startFill=0;" parent="1" target="_fmguLi4OHHUgeg0fhcw-5" edge="1">
          <mxGeometry width="160" relative="1" as="geometry">
            <mxPoint x="459.6" y="240" as="sourcePoint" />
            <mxPoint x="459.6" y="282" as="targetPoint" />
          </mxGeometry>
        </mxCell>
        <mxCell id="_fmguLi4OHHUgeg0fhcw-12" value="[1]" style="edgeLabel;html=1;align=center;verticalAlign=middle;resizable=0;points=[];" parent="_fmguLi4OHHUgeg0fhcw-11" vertex="1" connectable="0">
          <mxGeometry x="-0.1557" y="-1" relative="1" as="geometry">
            <mxPoint x="11" as="offset" />
          </mxGeometry>
        </mxCell>
        <mxCell id="_fmguLi4OHHUgeg0fhcw-13" value="" style="endArrow=open;endFill=0;endSize=12;html=1;rounded=0;exitX=0.5;exitY=1;exitDx=0;exitDy=0;entryX=0.5;entryY=0;entryDx=0;entryDy=0;startArrow=none;startFill=0;" parent="1" target="_fmguLi4OHHUgeg0fhcw-16" edge="1">
          <mxGeometry width="160" relative="1" as="geometry">
            <mxPoint x="459.6700000000001" y="380" as="sourcePoint" />
            <mxPoint x="460.07000000000005" y="440" as="targetPoint" />
          </mxGeometry>
        </mxCell>
        <mxCell id="_fmguLi4OHHUgeg0fhcw-14" value="[2]" style="edgeLabel;html=1;align=center;verticalAlign=middle;resizable=0;points=[];" parent="_fmguLi4OHHUgeg0fhcw-13" vertex="1" connectable="0">
          <mxGeometry x="-0.1113" y="-1" relative="1" as="geometry">
            <mxPoint x="11" as="offset" />
          </mxGeometry>
        </mxCell>
        <mxCell id="_fmguLi4OHHUgeg0fhcw-16" value="&lt;p style=&quot;white-space-collapse: preserve; text-align: start; margin: 0px;&quot;&gt;&lt;font style=&quot;font-size: 12px;&quot;&gt;DRIVER&lt;/font&gt;&lt;/p&gt;" style="ellipse;whiteSpace=wrap;html=1;" parent="1" vertex="1">
          <mxGeometry x="400" y="460" width="120" height="60" as="geometry" />
        </mxCell>
        <mxCell id="_fmguLi4OHHUgeg0fhcw-17" value="" style="endArrow=open;endFill=0;endSize=12;html=1;rounded=0;exitX=0.5;exitY=1;exitDx=0;exitDy=0;entryX=0.5;entryY=0;entryDx=0;entryDy=0;startArrow=none;startFill=0;" parent="1" target="_fmguLi4OHHUgeg0fhcw-8" edge="1">
          <mxGeometry width="160" relative="1" as="geometry">
            <mxPoint x="459.6700000000001" y="520" as="sourcePoint" />
            <mxPoint x="460.07000000000005" y="580" as="targetPoint" />
          </mxGeometry>
        </mxCell>
        <mxCell id="_fmguLi4OHHUgeg0fhcw-18" value="[3]" style="edgeLabel;html=1;align=center;verticalAlign=middle;resizable=0;points=[];" parent="_fmguLi4OHHUgeg0fhcw-17" vertex="1" connectable="0">
          <mxGeometry x="-0.1113" y="-1" relative="1" as="geometry">
            <mxPoint x="11" as="offset" />
          </mxGeometry>
        </mxCell>
        <mxCell id="_fmguLi4OHHUgeg0fhcw-19" value="&lt;div&gt;&quot;Device Representation&quot; is memory regions/data structures&lt;/div&gt;&lt;div&gt;representing a Virtio Device&lt;/div&gt;&lt;div&gt;(including its Virtqueues)&lt;/div&gt;&lt;div&gt;in guest OS.&lt;/div&gt;&lt;div&gt;&lt;br&gt;&lt;/div&gt;&lt;div&gt;This term is not used in the Spec, but&amp;nbsp;&lt;span style=&quot;background-color: initial;&quot;&gt;was introduced in the &lt;b&gt;Tech Illustrations&lt;/b&gt; to make clear&lt;/span&gt;&lt;/div&gt;&lt;div&gt;&lt;span style=&quot;background-color: initial;&quot;&gt;&amp;nbsp;picture of components&#39; roles.&amp;nbsp;&lt;/span&gt;&lt;br&gt;&lt;/div&gt;&lt;div&gt;&lt;span style=&quot;background-color: initial;&quot;&gt;&lt;br&gt;&lt;/span&gt;&lt;/div&gt;" style="shape=note2;boundedLbl=1;whiteSpace=wrap;html=1;size=25;verticalAlign=top;align=center;" parent="1" vertex="1">
          <mxGeometry x="560" y="820" width="200" height="200" as="geometry" />
        </mxCell>
        <mxCell id="_fmguLi4OHHUgeg0fhcw-20" value="" style="endArrow=open;endFill=0;endSize=12;html=1;rounded=0;exitX=0.5;exitY=1;exitDx=0;exitDy=0;entryX=0.5;entryY=0;entryDx=0;entryDy=0;startArrow=none;startFill=0;" parent="1" target="_fmguLi4OHHUgeg0fhcw-10" edge="1">
          <mxGeometry width="160" relative="1" as="geometry">
            <mxPoint x="459.6700000000001" y="660" as="sourcePoint" />
            <mxPoint x="460.07000000000005" y="720" as="targetPoint" />
          </mxGeometry>
        </mxCell>
        <mxCell id="_fmguLi4OHHUgeg0fhcw-21" value="[4]" style="edgeLabel;html=1;align=center;verticalAlign=middle;resizable=0;points=[];" parent="_fmguLi4OHHUgeg0fhcw-20" vertex="1" connectable="0">
          <mxGeometry x="-0.1113" y="-1" relative="1" as="geometry">
            <mxPoint x="11" as="offset" />
          </mxGeometry>
        </mxCell>
        <mxCell id="_fmguLi4OHHUgeg0fhcw-22" value="" style="curved=1;endArrow=open;html=1;rounded=0;exitX=0.95;exitY=0.283;exitDx=0;exitDy=0;exitPerimeter=0;entryX=0.5;entryY=0;entryDx=0;entryDy=0;endFill=0;" parent="1" target="_fmguLi4OHHUgeg0fhcw-9" edge="1">
          <mxGeometry width="50" height="50" relative="1" as="geometry">
            <mxPoint x="520" y="211.31999999999994" as="sourcePoint" />
            <mxPoint x="749.431457505076" y="291.7157287525381" as="targetPoint" />
            <Array as="points">
              <mxPoint x="660" y="300" />
            </Array>
          </mxGeometry>
        </mxCell>
        <mxCell id="_fmguLi4OHHUgeg0fhcw-23" value="&lt;div&gt;[5]&lt;/div&gt;" style="edgeLabel;html=1;align=center;verticalAlign=middle;resizable=0;points=[];" parent="_fmguLi4OHHUgeg0fhcw-22" vertex="1" connectable="0">
          <mxGeometry x="0.1181" y="-29" relative="1" as="geometry">
            <mxPoint x="-61" y="-52" as="offset" />
          </mxGeometry>
        </mxCell>
        <mxCell id="_fmguLi4OHHUgeg0fhcw-24" value="" style="curved=1;endArrow=open;html=1;rounded=0;exitX=0.95;exitY=0.283;exitDx=0;exitDy=0;exitPerimeter=0;entryX=0.5;entryY=0;entryDx=0;entryDy=0;endFill=0;" parent="1" target="_fmguLi4OHHUgeg0fhcw-9" edge="1">
          <mxGeometry width="50" height="50" relative="1" as="geometry">
            <mxPoint x="520" y="351.31999999999994" as="sourcePoint" />
            <mxPoint x="749.431457505076" y="431.7157287525381" as="targetPoint" />
            <Array as="points">
              <mxPoint x="660" y="351" />
            </Array>
          </mxGeometry>
        </mxCell>
        <mxCell id="_fmguLi4OHHUgeg0fhcw-25" value="&lt;div&gt;[6]&lt;/div&gt;" style="edgeLabel;html=1;align=center;verticalAlign=middle;resizable=0;points=[];" parent="_fmguLi4OHHUgeg0fhcw-24" vertex="1" connectable="0">
          <mxGeometry x="0.1181" y="-29" relative="1" as="geometry">
            <mxPoint x="-89" y="-30" as="offset" />
          </mxGeometry>
        </mxCell>
        <mxCell id="_fmguLi4OHHUgeg0fhcw-26" value="&lt;p style=&quot;white-space-collapse: preserve; margin: 0px;&quot;&gt;&lt;font style=&quot;font-size: 12px;&quot;&gt;DEVICE_NEEDS_&lt;/font&gt;&lt;/p&gt;&lt;p style=&quot;white-space-collapse: preserve; margin: 0px;&quot;&gt;&lt;font style=&quot;font-size: 12px;&quot;&gt;RESET&lt;/font&gt;&lt;/p&gt;" style="ellipse;whiteSpace=wrap;html=1;align=center;" parent="1" vertex="1">
          <mxGeometry x="200" y="460" width="120" height="60" as="geometry" />
        </mxCell>
        <mxCell id="_fmguLi4OHHUgeg0fhcw-27" value="" style="endArrow=open;endFill=0;endSize=12;html=1;rounded=0;exitX=0.5;exitY=1;exitDx=0;exitDy=0;startArrow=none;startFill=0;" parent="1" edge="1">
          <mxGeometry width="160" relative="1" as="geometry">
            <mxPoint x="520.0000000000001" y="490" as="sourcePoint" />
            <mxPoint x="600" y="490" as="targetPoint" />
          </mxGeometry>
        </mxCell>
        <mxCell id="_fmguLi4OHHUgeg0fhcw-28" value="[7]" style="edgeLabel;html=1;align=center;verticalAlign=middle;resizable=0;points=[];" parent="_fmguLi4OHHUgeg0fhcw-27" vertex="1" connectable="0">
          <mxGeometry x="-0.1113" y="-1" relative="1" as="geometry">
            <mxPoint x="15" y="-11" as="offset" />
          </mxGeometry>
        </mxCell>
        <mxCell id="_fmguLi4OHHUgeg0fhcw-31" value="" style="curved=1;endArrow=none;html=1;rounded=0;startArrow=open;startFill=0;endFill=0;exitX=0.5;exitY=1;exitDx=0;exitDy=0;strokeColor=#000000;" parent="1" source="_fmguLi4OHHUgeg0fhcw-26" edge="1">
          <mxGeometry width="50" height="50" relative="1" as="geometry">
            <mxPoint x="181.96" y="700" as="sourcePoint" />
            <mxPoint x="399.99999999999994" y="770" as="targetPoint" />
            <Array as="points">
              <mxPoint x="260" y="700" />
            </Array>
          </mxGeometry>
        </mxCell>
        <mxCell id="_fmguLi4OHHUgeg0fhcw-32" value="&lt;div&gt;[10]&lt;/div&gt;" style="edgeLabel;html=1;align=center;verticalAlign=middle;resizable=0;points=[];" parent="_fmguLi4OHHUgeg0fhcw-31" vertex="1" connectable="0">
          <mxGeometry x="-0.2103" y="15" relative="1" as="geometry">
            <mxPoint x="35" y="27" as="offset" />
          </mxGeometry>
        </mxCell>
        <mxCell id="_fmguLi4OHHUgeg0fhcw-33" value="" style="curved=1;endArrow=open;html=1;rounded=0;exitX=0.95;exitY=0.283;exitDx=0;exitDy=0;exitPerimeter=0;entryX=0.5;entryY=1;entryDx=0;entryDy=0;endFill=0;" parent="1" target="_fmguLi4OHHUgeg0fhcw-9" edge="1">
          <mxGeometry width="50" height="50" relative="1" as="geometry">
            <mxPoint x="520" y="631.3199999999999" as="sourcePoint" />
            <mxPoint x="740" y="740" as="targetPoint" />
            <Array as="points">
              <mxPoint x="660" y="631" />
            </Array>
          </mxGeometry>
        </mxCell>
        <mxCell id="_fmguLi4OHHUgeg0fhcw-34" value="[8]" style="edgeLabel;html=1;align=center;verticalAlign=middle;resizable=0;points=[];" parent="_fmguLi4OHHUgeg0fhcw-33" vertex="1" connectable="0">
          <mxGeometry x="0.1181" y="-29" relative="1" as="geometry">
            <mxPoint x="-119" y="-11" as="offset" />
          </mxGeometry>
        </mxCell>
        <mxCell id="_fmguLi4OHHUgeg0fhcw-35" value="" style="curved=1;endArrow=open;html=1;rounded=0;exitX=0.95;exitY=0.283;exitDx=0;exitDy=0;exitPerimeter=0;entryX=0.5;entryY=1;entryDx=0;entryDy=0;endFill=0;" parent="1" target="_fmguLi4OHHUgeg0fhcw-9" edge="1">
          <mxGeometry width="50" height="50" relative="1" as="geometry">
            <mxPoint x="520" y="770.3199999999999" as="sourcePoint" />
            <mxPoint x="740" y="1019" as="targetPoint" />
            <Array as="points">
              <mxPoint x="660" y="700" />
            </Array>
          </mxGeometry>
        </mxCell>
        <mxCell id="_fmguLi4OHHUgeg0fhcw-36" value="[9]" style="edgeLabel;html=1;align=center;verticalAlign=middle;resizable=0;points=[];" parent="_fmguLi4OHHUgeg0fhcw-35" vertex="1" connectable="0">
          <mxGeometry x="0.1181" y="-29" relative="1" as="geometry">
            <mxPoint x="-119" y="58" as="offset" />
          </mxGeometry>
        </mxCell>
        <mxCell id="_fmguLi4OHHUgeg0fhcw-38" value="" style="curved=1;endArrow=none;html=1;rounded=0;exitX=1;exitY=0.5;exitDx=0;exitDy=0;entryX=0.583;entryY=0.008;entryDx=0;entryDy=0;startArrow=open;startFill=0;endFill=0;entryPerimeter=0;" parent="1" source="_fmguLi4OHHUgeg0fhcw-90" target="_fmguLi4OHHUgeg0fhcw-9" edge="1">
          <mxGeometry width="50" height="50" relative="1" as="geometry">
            <mxPoint x="520" y="211.31999999999994" as="sourcePoint" />
            <mxPoint x="740" y="460" as="targetPoint" />
            <Array as="points">
              <mxPoint x="680" y="220" />
            </Array>
          </mxGeometry>
        </mxCell>
        <mxCell id="_fmguLi4OHHUgeg0fhcw-39" value="[11]" style="edgeLabel;html=1;align=center;verticalAlign=middle;resizable=0;points=[];" parent="_fmguLi4OHHUgeg0fhcw-38" vertex="1" connectable="0">
          <mxGeometry x="0.1181" y="-29" relative="1" as="geometry">
            <mxPoint x="-19" y="-48" as="offset" />
          </mxGeometry>
        </mxCell>
        <mxCell id="_fmguLi4OHHUgeg0fhcw-40" value="" style="curved=1;endArrow=none;html=1;rounded=0;entryX=0.5;entryY=0;entryDx=0;entryDy=0;startArrow=open;startFill=0;endFill=0;exitX=0;exitY=0.5;exitDx=0;exitDy=0;" parent="1" source="_fmguLi4OHHUgeg0fhcw-90" target="_fmguLi4OHHUgeg0fhcw-26" edge="1">
          <mxGeometry width="50" height="50" relative="1" as="geometry">
            <mxPoint x="-91" y="193" as="sourcePoint" />
            <mxPoint x="160" y="461" as="targetPoint" />
            <Array as="points">
              <mxPoint x="260" y="180" />
            </Array>
          </mxGeometry>
        </mxCell>
        <mxCell id="_fmguLi4OHHUgeg0fhcw-41" value="[11]" style="edgeLabel;html=1;align=center;verticalAlign=middle;resizable=0;points=[];" parent="_fmguLi4OHHUgeg0fhcw-40" vertex="1" connectable="0">
          <mxGeometry x="0.1181" y="-29" relative="1" as="geometry">
            <mxPoint x="59" y="-47" as="offset" />
          </mxGeometry>
        </mxCell>
        <mxCell id="_fmguLi4OHHUgeg0fhcw-50" value="" style="curved=1;endArrow=none;html=1;rounded=0;startArrow=open;startFill=0;endFill=0;strokeColor=#000000;exitX=0;exitY=0.5;exitDx=0;exitDy=0;" parent="1" source="_fmguLi4OHHUgeg0fhcw-90" edge="1">
          <mxGeometry width="50" height="50" relative="1" as="geometry">
            <mxPoint x="320" y="490" as="sourcePoint" />
            <mxPoint x="399.99999999999994" y="770" as="targetPoint" />
            <Array as="points">
              <mxPoint x="200" y="160" />
              <mxPoint x="150" y="420" />
              <mxPoint x="200" y="720" />
            </Array>
          </mxGeometry>
        </mxCell>
        <mxCell id="_fmguLi4OHHUgeg0fhcw-51" value="[11]" style="edgeLabel;html=1;align=center;verticalAlign=middle;resizable=0;points=[];" parent="_fmguLi4OHHUgeg0fhcw-50" vertex="1" connectable="0">
          <mxGeometry x="-0.2103" y="15" relative="1" as="geometry">
            <mxPoint x="80" y="-181" as="offset" />
          </mxGeometry>
        </mxCell>
        <mxCell id="_fmguLi4OHHUgeg0fhcw-77" value="" style="group" parent="1" vertex="1" connectable="0">
          <mxGeometry x="80" y="860" width="180" height="30" as="geometry" />
        </mxCell>
        <mxCell id="_fmguLi4OHHUgeg0fhcw-55" value="1" style="rounded=0;whiteSpace=wrap;html=1;" parent="_fmguLi4OHHUgeg0fhcw-77" vertex="1">
          <mxGeometry width="20" height="20" as="geometry" />
        </mxCell>
        <mxCell id="_fmguLi4OHHUgeg0fhcw-56" value="&lt;span style=&quot;font-size: 11px; text-wrap: nowrap; background-color: rgb(255, 255, 255);&quot;&gt;The Device is found and&lt;/span&gt;&lt;div style=&quot;font-size: 11px; text-wrap: nowrap;&quot;&gt;acknowledged&lt;/div&gt;" style="text;html=1;align=center;verticalAlign=middle;whiteSpace=wrap;rounded=0;strokeColor=default;" parent="_fmguLi4OHHUgeg0fhcw-77" vertex="1">
          <mxGeometry x="20" width="160" height="30" as="geometry" />
        </mxCell>
        <mxCell id="_fmguLi4OHHUgeg0fhcw-78" value="" style="group" parent="1" vertex="1" connectable="0">
          <mxGeometry x="80" y="900" width="180" height="30" as="geometry" />
        </mxCell>
        <mxCell id="_fmguLi4OHHUgeg0fhcw-57" value="2" style="rounded=0;whiteSpace=wrap;html=1;" parent="_fmguLi4OHHUgeg0fhcw-78" vertex="1">
          <mxGeometry width="20" height="20" as="geometry" />
        </mxCell>
        <mxCell id="_fmguLi4OHHUgeg0fhcw-58" value="&lt;span style=&quot;font-size: 11px; text-wrap: nowrap; background-color: rgb(255, 255, 255);&quot;&gt;The Driver is able&lt;/span&gt;&lt;div style=&quot;font-size: 11px; text-wrap: nowrap;&quot;&gt;to drive the Device&lt;/div&gt;" style="text;html=1;align=center;verticalAlign=middle;whiteSpace=wrap;rounded=0;strokeColor=default;" parent="_fmguLi4OHHUgeg0fhcw-78" vertex="1">
          <mxGeometry x="20" width="160" height="30" as="geometry" />
        </mxCell>
        <mxCell id="_fmguLi4OHHUgeg0fhcw-79" value="" style="group" parent="1" vertex="1" connectable="0">
          <mxGeometry x="80" y="940" width="180" height="30" as="geometry" />
        </mxCell>
        <mxCell id="_fmguLi4OHHUgeg0fhcw-59" value="3" style="rounded=0;whiteSpace=wrap;html=1;" parent="_fmguLi4OHHUgeg0fhcw-79" vertex="1">
          <mxGeometry width="20" height="20" as="geometry" />
        </mxCell>
        <mxCell id="_fmguLi4OHHUgeg0fhcw-60" value="&lt;span style=&quot;font-size: 11px; text-wrap: nowrap; background-color: rgb(255, 255, 255);&quot;&gt;Features has been&amp;nbsp;&lt;/span&gt;&lt;span style=&quot;font-size: 11px; text-wrap: nowrap; background-color: initial;&quot;&gt;negotiated&lt;/span&gt;" style="text;html=1;align=center;verticalAlign=middle;whiteSpace=wrap;rounded=0;strokeColor=default;" parent="_fmguLi4OHHUgeg0fhcw-79" vertex="1">
          <mxGeometry x="20" width="160" height="30" as="geometry" />
        </mxCell>
        <mxCell id="_fmguLi4OHHUgeg0fhcw-80" value="" style="group" parent="1" vertex="1" connectable="0">
          <mxGeometry x="80" y="980" width="180" height="40" as="geometry" />
        </mxCell>
        <mxCell id="_fmguLi4OHHUgeg0fhcw-61" value="4" style="rounded=0;whiteSpace=wrap;html=1;" parent="_fmguLi4OHHUgeg0fhcw-80" vertex="1">
          <mxGeometry width="20" height="20" as="geometry" />
        </mxCell>
        <mxCell id="_fmguLi4OHHUgeg0fhcw-62" value="&lt;span style=&quot;font-size: 11px; text-wrap: nowrap; background-color: rgb(255, 255, 255);&quot;&gt;Setting up of the&lt;/span&gt;&lt;div style=&quot;font-size: 11px; text-wrap: nowrap;&quot;&gt;Device Representation&lt;div&gt;is finished&lt;/div&gt;&lt;/div&gt;" style="text;html=1;align=center;verticalAlign=middle;whiteSpace=wrap;rounded=0;strokeColor=default;" parent="_fmguLi4OHHUgeg0fhcw-80" vertex="1">
          <mxGeometry x="20" width="160" height="40" as="geometry" />
        </mxCell>
        <mxCell id="_fmguLi4OHHUgeg0fhcw-81" value="" style="group" parent="1" vertex="1" connectable="0">
          <mxGeometry x="80" y="1030" width="180" height="30" as="geometry" />
        </mxCell>
        <mxCell id="_fmguLi4OHHUgeg0fhcw-63" value="5" style="rounded=0;whiteSpace=wrap;html=1;" parent="_fmguLi4OHHUgeg0fhcw-81" vertex="1">
          <mxGeometry width="20" height="20" as="geometry" />
        </mxCell>
        <mxCell id="_fmguLi4OHHUgeg0fhcw-64" value="&lt;div style=&quot;font-size: 11px; text-wrap: nowrap;&quot;&gt;The Device is found,&lt;/div&gt;&lt;div style=&quot;font-size: 11px; text-wrap: nowrap;&quot;&gt;but not recognized&lt;/div&gt;" style="text;html=1;align=center;verticalAlign=middle;whiteSpace=wrap;rounded=0;strokeColor=default;" parent="_fmguLi4OHHUgeg0fhcw-81" vertex="1">
          <mxGeometry x="20" width="160" height="30" as="geometry" />
        </mxCell>
        <mxCell id="_fmguLi4OHHUgeg0fhcw-82" value="" style="group" parent="1" vertex="1" connectable="0">
          <mxGeometry x="320" y="820" width="180" height="30" as="geometry" />
        </mxCell>
        <mxCell id="_fmguLi4OHHUgeg0fhcw-65" value="6" style="rounded=0;whiteSpace=wrap;html=1;" parent="_fmguLi4OHHUgeg0fhcw-82" vertex="1">
          <mxGeometry width="20" height="20" as="geometry" />
        </mxCell>
        <mxCell id="_fmguLi4OHHUgeg0fhcw-66" value="&lt;div style=&quot;font-size: 11px; text-wrap: nowrap;&quot;&gt;&lt;div&gt;The guest OS cannot drive&lt;/div&gt;&lt;div&gt;the Device&lt;/div&gt;&lt;/div&gt;" style="text;html=1;align=center;verticalAlign=middle;whiteSpace=wrap;rounded=0;strokeColor=default;" parent="_fmguLi4OHHUgeg0fhcw-82" vertex="1">
          <mxGeometry x="20" width="160" height="30" as="geometry" />
        </mxCell>
        <mxCell id="_fmguLi4OHHUgeg0fhcw-83" value="" style="group" parent="1" vertex="1" connectable="0">
          <mxGeometry x="320" y="860" width="180" height="40" as="geometry" />
        </mxCell>
        <mxCell id="_fmguLi4OHHUgeg0fhcw-67" value="7" style="rounded=0;whiteSpace=wrap;html=1;" parent="_fmguLi4OHHUgeg0fhcw-83" vertex="1">
          <mxGeometry width="20" height="20" as="geometry" />
        </mxCell>
        <mxCell id="_fmguLi4OHHUgeg0fhcw-68" value="&lt;div style=&quot;font-size: 11px; text-wrap: nowrap;&quot;&gt;&lt;span style=&quot;background-color: rgb(255, 255, 255);&quot;&gt;The Driver&amp;nbsp;&lt;/span&gt;&lt;span style=&quot;background-color: initial;&quot;&gt;does not accept&lt;/span&gt;&lt;div&gt;&lt;div&gt;the Device features or&lt;/div&gt;&lt;div&gt;parameters&lt;/div&gt;&lt;/div&gt;&lt;/div&gt;" style="text;html=1;align=center;verticalAlign=middle;whiteSpace=wrap;rounded=0;strokeColor=default;" parent="_fmguLi4OHHUgeg0fhcw-83" vertex="1">
          <mxGeometry x="20" width="160" height="40" as="geometry" />
        </mxCell>
        <mxCell id="_fmguLi4OHHUgeg0fhcw-84" value="" style="group" parent="1" vertex="1" connectable="0">
          <mxGeometry x="320" y="910" width="180" height="40" as="geometry" />
        </mxCell>
        <mxCell id="_fmguLi4OHHUgeg0fhcw-69" value="8" style="rounded=0;whiteSpace=wrap;html=1;" parent="_fmguLi4OHHUgeg0fhcw-84" vertex="1">
          <mxGeometry width="20" height="20" as="geometry" />
        </mxCell>
        <mxCell id="_fmguLi4OHHUgeg0fhcw-70" value="&lt;div style=&quot;font-size: 11px; text-wrap: nowrap;&quot;&gt;&lt;span style=&quot;background-color: rgb(255, 255, 255);&quot;&gt;Setting up of the&lt;/span&gt;&lt;div&gt;Device Representation&lt;div&gt;is failed&lt;/div&gt;&lt;/div&gt;&lt;/div&gt;" style="text;html=1;align=center;verticalAlign=middle;whiteSpace=wrap;rounded=0;strokeColor=default;" parent="_fmguLi4OHHUgeg0fhcw-84" vertex="1">
          <mxGeometry x="20" width="160" height="40" as="geometry" />
        </mxCell>
        <mxCell id="_fmguLi4OHHUgeg0fhcw-85" value="" style="group" parent="1" vertex="1" connectable="0">
          <mxGeometry x="320" y="960" width="180" height="40" as="geometry" />
        </mxCell>
        <mxCell id="_fmguLi4OHHUgeg0fhcw-71" value="9" style="rounded=0;whiteSpace=wrap;html=1;" parent="_fmguLi4OHHUgeg0fhcw-85" vertex="1">
          <mxGeometry width="20" height="20" as="geometry" />
        </mxCell>
        <mxCell id="_fmguLi4OHHUgeg0fhcw-72" value="&lt;div style=&quot;font-size: 11px; text-wrap: nowrap;&quot;&gt;&lt;span style=&quot;background-color: rgb(255, 255, 255);&quot;&gt;Something goes wrong&lt;/span&gt;&lt;div&gt;on Driver side during&lt;/div&gt;&lt;div&gt;normal operation&lt;/div&gt;&lt;/div&gt;" style="text;html=1;align=center;verticalAlign=middle;whiteSpace=wrap;rounded=0;strokeColor=default;" parent="_fmguLi4OHHUgeg0fhcw-85" vertex="1">
          <mxGeometry x="20" width="160" height="40" as="geometry" />
        </mxCell>
        <mxCell id="_fmguLi4OHHUgeg0fhcw-87" value="" style="group" parent="1" vertex="1" connectable="0">
          <mxGeometry x="320" y="1010" width="180" height="40" as="geometry" />
        </mxCell>
        <mxCell id="_fmguLi4OHHUgeg0fhcw-75" value="10" style="rounded=0;whiteSpace=wrap;html=1;" parent="_fmguLi4OHHUgeg0fhcw-87" vertex="1">
          <mxGeometry width="20" height="20" as="geometry" />
        </mxCell>
        <mxCell id="_fmguLi4OHHUgeg0fhcw-76" value="&lt;div style=&quot;font-size: 11px; text-wrap: nowrap;&quot;&gt;Something goes wrong&lt;/div&gt;&lt;div style=&quot;font-size: 11px; text-wrap: nowrap;&quot;&gt;for the Device&lt;/div&gt;&lt;div style=&quot;font-size: 11px; text-wrap: nowrap;&quot;&gt;during normal operation&lt;/div&gt;" style="text;html=1;align=center;verticalAlign=middle;whiteSpace=wrap;rounded=0;strokeColor=default;" parent="_fmguLi4OHHUgeg0fhcw-87" vertex="1">
          <mxGeometry x="20" width="160" height="40" as="geometry" />
        </mxCell>
        <mxCell id="_fmguLi4OHHUgeg0fhcw-88" value="" style="group" parent="1" vertex="1" connectable="0">
          <mxGeometry x="320" y="1060" width="180" height="30" as="geometry" />
        </mxCell>
        <mxCell id="_fmguLi4OHHUgeg0fhcw-53" value="11" style="rounded=0;whiteSpace=wrap;html=1;" parent="_fmguLi4OHHUgeg0fhcw-88" vertex="1">
          <mxGeometry width="20" height="20" as="geometry" />
        </mxCell>
        <mxCell id="_fmguLi4OHHUgeg0fhcw-54" value="&lt;span style=&quot;font-size: 11px; text-wrap: nowrap; background-color: rgb(255, 255, 255);&quot;&gt;The Driver requested&lt;/span&gt;&lt;div style=&quot;font-size: 11px; text-wrap: nowrap;&quot;&gt;Device Reset&lt;/div&gt;" style="text;html=1;align=center;verticalAlign=middle;whiteSpace=wrap;rounded=0;strokeColor=default;" parent="_fmguLi4OHHUgeg0fhcw-88" vertex="1">
          <mxGeometry x="20" width="160" height="30" as="geometry" />
        </mxCell>
        <mxCell id="_fmguLi4OHHUgeg0fhcw-90" value="&lt;p style=&quot;white-space-collapse: preserve; margin: 0px;&quot;&gt;&lt;font style=&quot;font-size: 12px;&quot;&gt;RESET_&lt;/font&gt;&lt;/p&gt;&lt;p style=&quot;white-space-collapse: preserve; margin: 0px;&quot;&gt;&lt;font style=&quot;font-size: 12px;&quot;&gt;UNDERWAY&lt;/font&gt;&lt;/p&gt;" style="ellipse;whiteSpace=wrap;html=1;align=center;" parent="1" vertex="1">
          <mxGeometry x="400" y="80" width="120" height="60" as="geometry" />
        </mxCell>
        <mxCell id="_fmguLi4OHHUgeg0fhcw-91" value="" style="endArrow=open;endFill=0;endSize=12;html=1;rounded=0;exitX=0.5;exitY=1;exitDx=0;exitDy=0;startArrow=none;startFill=0;" parent="1" edge="1">
          <mxGeometry width="160" relative="1" as="geometry">
            <mxPoint x="459.75" y="140" as="sourcePoint" />
            <mxPoint x="459.75" y="180" as="targetPoint" />
          </mxGeometry>
        </mxCell>
        <mxCell id="_fmguLi4OHHUgeg0fhcw-92" value="[0]" style="edgeLabel;html=1;align=center;verticalAlign=middle;resizable=0;points=[];" parent="_fmguLi4OHHUgeg0fhcw-91" vertex="1" connectable="0">
          <mxGeometry x="-0.1557" y="-1" relative="1" as="geometry">
            <mxPoint x="11" as="offset" />
          </mxGeometry>
        </mxCell>
        <mxCell id="_fmguLi4OHHUgeg0fhcw-96" value="" style="group" parent="1" vertex="1" connectable="0">
          <mxGeometry x="80" y="820" width="180" height="30" as="geometry" />
        </mxCell>
        <mxCell id="_fmguLi4OHHUgeg0fhcw-94" value="0" style="rounded=0;whiteSpace=wrap;html=1;" parent="_fmguLi4OHHUgeg0fhcw-96" vertex="1">
          <mxGeometry width="20" height="20" as="geometry" />
        </mxCell>
        <mxCell id="_fmguLi4OHHUgeg0fhcw-95" value="&lt;span style=&quot;font-size: 11px; text-wrap: nowrap; background-color: rgb(255, 255, 255);&quot;&gt;Resetting is over&lt;/span&gt;" style="text;html=1;align=center;verticalAlign=middle;whiteSpace=wrap;rounded=0;strokeColor=default;" parent="_fmguLi4OHHUgeg0fhcw-96" vertex="1">
          <mxGeometry x="20" width="160" height="30" as="geometry" />
        </mxCell>
        <mxCell id="q_LVL4bU-BadwCUw4_T3-1" value="&lt;span style=&quot;font-size: 14px;&quot;&gt;Diagram of&amp;nbsp;&lt;/span&gt;&lt;span style=&quot;font-size: 14px;&quot;&gt;States supported in &#39;Virtio Device&#39; abstraction&lt;/span&gt;" style="shape=partialRectangle;whiteSpace=wrap;html=1;left=0;right=0;fillColor=none;strokeColor=#4D4D4D;" vertex="1" parent="1">
          <mxGeometry x="160" y="20" width="480" height="40" as="geometry" />
        </mxCell>
        <mxCell id="q_LVL4bU-BadwCUw4_T3-2" value="&lt;font color=&quot;#4d4d4d&quot;&gt;VD01IL1&amp;nbsp;ver 1.0&lt;/font&gt;&lt;div&gt;&lt;font color=&quot;#4d4d4d&quot;&gt;Oct-8-2024&lt;/font&gt;&lt;/div&gt;" style="shape=partialRectangle;whiteSpace=wrap;html=1;left=0;right=0;fillColor=none;strokeColor=#4D4D4D;" vertex="1" parent="1">
          <mxGeometry x="680" y="20" width="120" height="40" as="geometry" />
        </mxCell>
        <mxCell id="q_LVL4bU-BadwCUw4_T3-3" value="&lt;div&gt;&lt;font style=&quot;font-size: 10px;&quot;&gt;&lt;span style=&quot;background-color: initial;&quot;&gt;©&amp;nbsp;&lt;/span&gt;Nataliya Korovkina&lt;span style=&quot;background-color: initial;&quot;&gt;&amp;nbsp;2024-2025 – CC BY 4.0&lt;/span&gt;&lt;/font&gt;&lt;/div&gt;&lt;div&gt;&lt;font style=&quot;font-size: 10px;&quot;&gt;docs.kernels-abreeze.dev&lt;/font&gt;&lt;/div&gt;" style="shape=partialRectangle;whiteSpace=wrap;html=1;left=0;right=0;fillColor=none;strokeColor=#4D4D4D;" vertex="1" parent="1">
          <mxGeometry x="560" y="1110" width="240" height="40" as="geometry" />
        </mxCell>
      </root>
    </mxGraphModel>
  </diagram>
</mxfile>
